<svg width="100" height="100" viewBox="0 0 100 100" fill="none" xmlns="http://www.w3.org/2000/svg">
  <defs>
    <!-- Резкий градиент в стиле минималистичного 3D. 
         Использованы фирменные цвета shadcn: Zinc 800 и Zinc 950 -->
    <linearGradient id="shadcn_swag" x1="0" y1="0" x2="100" y2="0" gradientUnits="userSpaceOnUse">
      <stop offset="0.68" stop-color="#27272A"/> <!-- Светло-серый графит (лицевая часть) -->
      <stop offset="0.68" stop-color="#09090B"/> <!-- Глубокий черный (боковая грань) -->
    </linearGradient>
  </defs>

  <path fill-rule="evenodd" clip-rule="evenodd" 
    d="M10 0 H90 C95.523 0 100 4.477 100 10 V90 C100 95.523 95.523 100 90 100 H10 C4.477 100 0 95.523 0 90 V10 C0 4.477 4.477 0 10 0 Z 
       M45 25 H55 C66.046 25 75 33.954 75 45 V55 C75 66.046 66.046 75 55 75 H45 C33.954 75 25 66.046 25 55 V45 C25 33.954 33.954 25 45 25 Z" 
    fill="url(#shadcn_swag)"/>
</svg>